<svg id='Truck_Moving_24' width='24' height='24' viewBox='0 0 24 24' xmlns='http://www.w3.org/2000/svg' xmlns:xlink='http://www.w3.org/1999/xlink'><rect width='24' height='24' stroke='none' fill='#000000' opacity='0'/>


<g transform="matrix(0.83 0 0 0.83 12 12)" >
<g style="" >
<g transform="matrix(1 0 0 1 2 5)" >
<path style="stroke: none; stroke-width: 1; stroke-dasharray: none; stroke-linecap: butt; stroke-dashoffset: 0; stroke-linejoin: miter; stroke-miterlimit: 4; fill: rgb(255,188,68); fill-rule: nonzero; opacity: 1;" transform=" translate(-14, -17)" d="M 22.6 20.5 C 22.8387 20.5 23.0676 20.4052 23.2364 20.2364 C 23.4052 20.0676 23.5 19.8387 23.5 19.6 L 23.5 17.5 C 23.5 16.4391 23.0786 15.4217 22.3284 14.6716 C 21.5783 13.9214 20.5609 13.5 19.5 13.5 L 16.5 13.5 L 16.5 16.5 C 16.5 16.7652 16.3946 17.0196 16.2071 17.2071 C 16.0196 17.3946 15.7652 17.5 15.5 17.5 L 4.5 17.5 L 4.5 19.6 C 4.5 19.7182 4.52328 19.8352 4.56851 19.9444 C 4.61374 20.0536 4.68003 20.1528 4.7636 20.2364 C 4.84718 20.32 4.94639 20.3863 5.05558 20.4315 C 5.16478 20.4767 5.28181 20.5 5.4 20.5 L 22.6 20.5 Z" stroke-linecap="round" />
</g>
<g transform="matrix(1 0 0 1 9.5 3.5)" >
<path style="stroke: none; stroke-width: 1; stroke-dasharray: none; stroke-linecap: butt; stroke-dashoffset: 0; stroke-linejoin: miter; stroke-miterlimit: 4; fill: rgb(102,225,255); fill-rule: nonzero; opacity: 1;" transform=" translate(-21.5, -15.5)" d="M 19.5 13.5 L 19.5 16.5 C 19.5 16.7652 19.6054 17.0196 19.7929 17.2071 C 19.9804 17.3946 20.2348 17.5 20.5 17.5 L 23.5 17.5 C 23.5 16.4391 23.0786 15.4217 22.3284 14.6716 C 21.5783 13.9214 20.5609 13.5 19.5 13.5 L 19.5 13.5 Z" stroke-linecap="round" />
</g>
<g transform="matrix(1 0 0 1 8.91 3.35)" >
<path style="stroke: none; stroke-width: 1; stroke-dasharray: none; stroke-linecap: butt; stroke-dashoffset: 0; stroke-linejoin: miter; stroke-miterlimit: 4; fill: rgb(194,243,255); fill-rule: nonzero; opacity: 1;" transform=" translate(-20.91, -15.35)" d="M 22.328 14.672 C 21.9572 14.2998 21.5164 14.0047 21.0311 13.8035 C 20.5457 13.6024 20.0254 13.4992 19.5 13.5 L 19.5 16.5 C 19.5001 16.7652 19.6054 17.0195 19.793 17.207 L 22.328 14.672 Z" stroke-linecap="round" />
</g>
<g transform="matrix(1 0 0 1 -3.5 1)" >
<path style="stroke: none; stroke-width: 1; stroke-dasharray: none; stroke-linecap: butt; stroke-dashoffset: 0; stroke-linejoin: miter; stroke-miterlimit: 4; fill: rgb(255,128,140); fill-rule: nonzero; opacity: 1;" transform=" translate(-8.5, -13)" d="M 15.5 8.5 L 1.5 8.5 C 0.947715 8.5 0.5 8.94772 0.5 9.5 L 0.5 16.5 C 0.5 17.0523 0.947715 17.5 1.5 17.5 L 15.5 17.5 C 16.0523 17.5 16.5 17.0523 16.5 16.5 L 16.5 9.5 C 16.5 8.94772 16.0523 8.5 15.5 8.5 Z" stroke-linecap="round" />
</g>
<g transform="matrix(1 0 0 1 -3.5 -2)" >
<path style="stroke: none; stroke-width: 1; stroke-dasharray: none; stroke-linecap: butt; stroke-dashoffset: 0; stroke-linejoin: miter; stroke-miterlimit: 4; fill: rgb(255,191,197); fill-rule: nonzero; opacity: 1;" transform=" translate(-8.5, -10)" d="M 16.5 11.5 L 16.5 9.5 C 16.5 9.23478 16.3946 8.98043 16.2071 8.79289 C 16.0196 8.60536 15.7652 8.5 15.5 8.5 L 1.5 8.5 C 1.23478 8.5 0.98043 8.60536 0.792893 8.79289 C 0.605357 8.98043 0.5 9.23478 0.5 9.5 L 0.5 11.5 L 16.5 11.5 Z" stroke-linecap="round" />
</g>
<g transform="matrix(1 0 0 1 2 5)" >
<path style="stroke: rgb(25,25,25); stroke-width: 1; stroke-dasharray: none; stroke-linecap: round; stroke-dashoffset: 0; stroke-linejoin: round; stroke-miterlimit: 4; fill: none; fill-rule: nonzero; opacity: 1;" transform=" translate(-14, -17)" d="M 19.732 20.5 L 22.6 20.5 C 22.8387 20.5 23.0676 20.4052 23.2364 20.2364 C 23.4052 20.0676 23.5 19.8387 23.5 19.6 L 23.5 17.5 C 23.5 16.4391 23.0786 15.4217 22.3284 14.6716 C 21.5783 13.9214 20.5609 13.5 19.5 13.5 L 16.5 13.5 L 16.5 16.5 C 16.5 16.7652 16.3946 17.0196 16.2071 17.2071 C 16.0196 17.3946 15.7652 17.5 15.5 17.5 L 4.5 17.5 L 4.5 19.6 C 4.5 19.7182 4.52328 19.8352 4.56851 19.9444 C 4.61374 20.0536 4.68003 20.1528 4.7636 20.2364 C 4.84718 20.32 4.94639 20.3863 5.05558 20.4315 C 5.16478 20.4767 5.28181 20.5 5.4 20.5 L 7.268 20.5" stroke-linecap="round" />
</g>
<g transform="matrix(1 0 0 1 1.5 8.5)" >
<path style="stroke: rgb(25,25,25); stroke-width: 1; stroke-dasharray: none; stroke-linecap: round; stroke-dashoffset: 0; stroke-linejoin: round; stroke-miterlimit: 4; fill: none; fill-rule: nonzero; opacity: 1;" transform=" translate(-13.5, -20.5)" d="M 10.732 20.5 L 16.268 20.5" stroke-linecap="round" />
</g>
<g transform="matrix(1 0 0 1 6 9.5)" >
<path style="stroke: rgb(25,25,25); stroke-width: 1; stroke-dasharray: none; stroke-linecap: round; stroke-dashoffset: 0; stroke-linejoin: round; stroke-miterlimit: 4; fill: rgb(128,128,128); fill-rule: nonzero; opacity: 1;" transform=" translate(-18, -21.5)" d="M 18 23.5 C 19.1046 23.5 20 22.6046 20 21.5 C 20 20.3954 19.1046 19.5 18 19.5 C 16.8954 19.5 16 20.3954 16 21.5 C 16 22.6046 16.8954 23.5 18 23.5 Z" stroke-linecap="round" />
</g>
<g transform="matrix(1 0 0 1 -3 9.5)" >
<path style="stroke: rgb(25,25,25); stroke-width: 1; stroke-dasharray: none; stroke-linecap: round; stroke-dashoffset: 0; stroke-linejoin: round; stroke-miterlimit: 4; fill: rgb(128,128,128); fill-rule: nonzero; opacity: 1;" transform=" translate(-9, -21.5)" d="M 9 23.5 C 10.1046 23.5 11 22.6046 11 21.5 C 11 20.3954 10.1046 19.5 9 19.5 C 7.89543 19.5 7 20.3954 7 21.5 C 7 22.6046 7.89543 23.5 9 23.5 Z" stroke-linecap="round" />
</g>
<g transform="matrix(1 0 0 1 9.5 3.5)" >
<path style="stroke: rgb(25,25,25); stroke-width: 1; stroke-dasharray: none; stroke-linecap: round; stroke-dashoffset: 0; stroke-linejoin: round; stroke-miterlimit: 4; fill: none; fill-rule: nonzero; opacity: 1;" transform=" translate(-21.5, -15.5)" d="M 19.5 13.5 L 19.5 16.5 C 19.5 16.7652 19.6054 17.0196 19.7929 17.2071 C 19.9804 17.3946 20.2348 17.5 20.5 17.5 L 23.5 17.5" stroke-linecap="round" />
</g>
<g transform="matrix(1 0 0 1 -3.5 1)" >
<path style="stroke: rgb(25,25,25); stroke-width: 1; stroke-dasharray: none; stroke-linecap: round; stroke-dashoffset: 0; stroke-linejoin: round; stroke-miterlimit: 4; fill: none; fill-rule: nonzero; opacity: 1;" transform=" translate(-8.5, -13)" d="M 13 8.5 L 15.5 8.5 C 15.7652 8.5 16.0196 8.60536 16.2071 8.79289 C 16.3946 8.98043 16.5 9.23478 16.5 9.5 L 16.5 16.5 C 16.5 16.7652 16.3946 17.0196 16.2071 17.2071 C 16.0196 17.3946 15.7652 17.5 15.5 17.5 L 1.5 17.5 C 1.23478 17.5 0.98043 17.3946 0.792893 17.2071 C 0.605357 17.0196 0.5 16.7652 0.5 16.5 L 0.5 10.846" stroke-linecap="round" />
</g>
<g transform="matrix(1 0 0 1 -5.5 -7)" >
<path style="stroke: none; stroke-width: 1; stroke-dasharray: none; stroke-linecap: butt; stroke-dashoffset: 0; stroke-linejoin: miter; stroke-miterlimit: 4; fill: rgb(255,255,255); fill-rule: nonzero; opacity: 1;" transform=" translate(-6.5, -5)" d="M 6.5 0.5 L 3 3.682 L 3 9 C 3 9.13261 3.05268 9.25979 3.14645 9.35355 C 3.24021 9.44732 3.36739 9.5 3.5 9.5 L 9.5 9.5 C 9.63261 9.5 9.75979 9.44732 9.85355 9.35355 C 9.94732 9.25979 10 9.13261 10 9 L 10 3.682 L 6.5 0.5 Z" stroke-linecap="round" />
</g>
<g transform="matrix(1 0 0 1 -5.5 -4.5)" >
<path style="stroke: rgb(25,25,25); stroke-width: 1; stroke-dasharray: none; stroke-linecap: round; stroke-dashoffset: 0; stroke-linejoin: round; stroke-miterlimit: 4; fill: rgb(199,127,103); fill-rule: nonzero; opacity: 1;" transform=" translate(-6.5, -7.5)" d="M 5 9.5 L 5 7 C 5 6.60218 5.15804 6.22064 5.43934 5.93934 C 5.72064 5.65804 6.10218 5.5 6.5 5.5 C 6.89782 5.5 7.27936 5.65804 7.56066 5.93934 C 7.84196 6.22064 8 6.60218 8 7 L 8 9.5 L 5 9.5 Z" stroke-linecap="round" />
</g>
<g transform="matrix(1 0 0 1 -5.5 -5.41)" >
<path style="stroke: rgb(25,25,25); stroke-width: 1; stroke-dasharray: none; stroke-linecap: round; stroke-dashoffset: 0; stroke-linejoin: round; stroke-miterlimit: 4; fill: none; fill-rule: nonzero; opacity: 1;" transform=" translate(-6.5, -6.59)" d="M 3 3.68201 L 3 9.00001 C 3 9.13261 3.05268 9.25979 3.14645 9.35356 C 3.24021 9.44733 3.36739 9.50001 3.5 9.50001 L 9.5 9.50001 C 9.63261 9.50001 9.75979 9.44733 9.85355 9.35356 C 9.94732 9.25979 10 9.13261 10 9.00001 L 10 3.68201" stroke-linecap="round" />
</g>
<g transform="matrix(1 0 0 1 -5.5 -9)" >
<path style="stroke: rgb(25,25,25); stroke-width: 1; stroke-dasharray: none; stroke-linecap: round; stroke-dashoffset: 0; stroke-linejoin: round; stroke-miterlimit: 4; fill: none; fill-rule: nonzero; opacity: 1;" transform=" translate(-6.5, -3)" d="M 1 5.5 L 6.5 0.5 L 12 5.5" stroke-linecap="round" />
</g>
</g>
</g>
</svg>